<svg xmlns="http://www.w3.org/2000/svg" viewBox="0 0 24 24" fill="currentColor">
  <path d="M22.46 6c-.77.34-1.6.57-2.46.67a4.27 4.27 0 0 0 1.88-2.36 8.46 8.46 0 0 1-2.7 1.03 4.24 4.24 0 0 0-7.22 3.86A12.05 12.05 0 0 1 3.16 4.5a4.24 4.24 0 0 0 1.31 5.66 4.2 4.2 0 0 1-1.92-.53v.05a4.24 4.24 0 0 0 3.4 4.16 4.25 4.25 0 0 1-1.92.07 4.24 4.24 0 0 0 3.96 2.95A8.5 8.5 0 0 1 2 19.54a12.01 12.01 0 0 0 6.52 1.91c7.83 0 12.11-6.49 12.11-12.12 0-.18-.01-.35-.02-.53A8.65 8.65 0 0 0 24 5.45a8.4 8.4 0 0 1-2.54.7Z"/>
</svg>
